<?xml version="1.0" encoding="UTF-8"?>
<svg xmlns="http://www.w3.org/2000/svg" version="1.1" width="500" height="500" viewBox="0 0 500 500"><rect x="0" y="0" width="500" height="500" fill="#ffffff"/><g transform="scale(23.81)"><g transform="translate(0,0)"><path fill-rule="evenodd" d="M8 0L8 4L9 4L9 5L8 5L8 7L9 7L9 5L10 5L10 7L11 7L11 5L12 5L12 7L13 7L13 2L12 2L12 1L13 1L13 0L12 0L12 1L11 1L11 2L10 2L10 1L9 1L9 0ZM9 3L9 4L10 4L10 3ZM11 3L11 4L12 4L12 3ZM0 8L0 10L1 10L1 11L2 11L2 12L3 12L3 11L5 11L5 10L6 10L6 11L8 11L8 14L9 14L9 15L8 15L8 17L10 17L10 18L9 18L9 19L8 19L8 21L9 21L9 20L10 20L10 21L11 21L11 20L12 20L12 21L13 21L13 19L15 19L15 18L16 18L16 19L17 19L17 20L15 20L15 21L17 21L17 20L18 20L18 19L19 19L19 18L21 18L21 17L19 17L19 18L18 18L18 19L17 19L17 17L15 17L15 18L13 18L13 19L12 19L12 17L14 17L14 16L13 16L13 15L14 15L14 14L15 14L15 13L14 13L14 11L13 11L13 8L12 8L12 11L11 11L11 10L10 10L10 9L7 9L7 8L4 8L4 9L2 9L2 8ZM15 8L15 9L14 9L14 10L16 10L16 12L17 12L17 9L19 9L19 11L20 11L20 9L21 9L21 8L17 8L17 9L16 9L16 8ZM1 9L1 10L2 10L2 11L3 11L3 10L2 10L2 9ZM4 9L4 10L5 10L5 9ZM6 9L6 10L7 10L7 9ZM8 10L8 11L10 11L10 12L9 12L9 13L10 13L10 12L11 12L11 11L10 11L10 10ZM6 12L6 13L7 13L7 12ZM12 12L12 13L11 13L11 14L10 14L10 15L9 15L9 16L10 16L10 17L11 17L11 16L10 16L10 15L11 15L11 14L12 14L12 15L13 15L13 14L14 14L14 13L13 13L13 12ZM12 13L12 14L13 14L13 13ZM16 13L16 15L15 15L15 16L16 16L16 15L20 15L20 13L19 13L19 14L18 14L18 13ZM10 18L10 20L11 20L11 18ZM20 20L20 21L21 21L21 20ZM0 0L0 7L7 7L7 0ZM1 1L1 6L6 6L6 1ZM2 2L2 5L5 5L5 2ZM14 0L14 7L21 7L21 0ZM15 1L15 6L20 6L20 1ZM16 2L16 5L19 5L19 2ZM0 14L0 21L7 21L7 14ZM1 15L1 20L6 20L6 15ZM2 16L2 19L5 19L5 16Z" fill="#000000"/></g></g></svg>
