<?xml version="1.0" encoding="UTF-8"?>
<svg xmlns="http://www.w3.org/2000/svg" version="1.1" width="500" height="500" viewBox="0 0 500 500"><rect x="0" y="0" width="500" height="500" fill="#ffffff"/><g transform="scale(23.81)"><g transform="translate(0,0)"><path fill-rule="evenodd" d="M8 0L8 4L9 4L9 5L8 5L8 7L9 7L9 5L10 5L10 7L11 7L11 5L12 5L12 7L13 7L13 2L12 2L12 1L13 1L13 0L12 0L12 1L11 1L11 2L10 2L10 1L9 1L9 0ZM9 3L9 4L10 4L10 3ZM11 3L11 4L12 4L12 3ZM0 8L0 9L2 9L2 8ZM4 8L4 10L0 10L0 12L1 12L1 13L2 13L2 12L3 12L3 11L4 11L4 10L5 10L5 9L7 9L7 8ZM12 8L12 11L10 11L10 10L11 10L11 9L10 9L10 10L9 10L9 9L8 9L8 10L6 10L6 11L5 11L5 12L4 12L4 13L7 13L7 12L8 12L8 14L9 14L9 15L8 15L8 17L9 17L9 19L8 19L8 21L10 21L10 20L11 20L11 21L13 21L13 20L12 20L12 17L14 17L14 16L12 16L12 14L13 14L13 15L14 15L14 14L15 14L15 13L14 13L14 11L13 11L13 8ZM15 8L15 9L14 9L14 10L16 10L16 12L17 12L17 9L19 9L19 11L20 11L20 9L21 9L21 8L17 8L17 9L16 9L16 8ZM1 11L1 12L2 12L2 11ZM6 11L6 12L7 12L7 11ZM12 12L12 13L10 13L10 14L12 14L12 13L13 13L13 14L14 14L14 13L13 13L13 12ZM16 13L16 15L15 15L15 16L16 16L16 15L20 15L20 13L19 13L19 14L18 14L18 13ZM9 15L9 17L10 17L10 19L11 19L11 17L12 17L12 16L10 16L10 15ZM15 17L15 18L13 18L13 19L15 19L15 18L16 18L16 19L17 19L17 20L15 20L15 21L17 21L17 20L18 20L18 19L19 19L19 18L21 18L21 17L19 17L19 18L18 18L18 19L17 19L17 17ZM20 20L20 21L21 21L21 20ZM0 0L0 7L7 7L7 0ZM1 1L1 6L6 6L6 1ZM2 2L2 5L5 5L5 2ZM14 0L14 7L21 7L21 0ZM15 1L15 6L20 6L20 1ZM16 2L16 5L19 5L19 2ZM0 14L0 21L7 21L7 14ZM1 15L1 20L6 20L6 15ZM2 16L2 19L5 19L5 16Z" fill="#000000"/></g></g></svg>
