<?xml version="1.0" encoding="UTF-8"?>
<svg xmlns="http://www.w3.org/2000/svg" version="1.1" width="500" height="500" viewBox="0 0 500 500"><rect x="0" y="0" width="500" height="500" fill="#ffffff"/><g transform="scale(23.81)"><g transform="translate(0,0)"><path fill-rule="evenodd" d="M8 0L8 1L9 1L9 0ZM10 0L10 2L8 2L8 5L9 5L9 6L8 6L8 7L9 7L9 6L10 6L10 7L11 7L11 8L8 8L8 9L10 9L10 10L8 10L8 11L10 11L10 10L11 10L11 12L12 12L12 13L11 13L11 14L10 14L10 16L9 16L9 17L8 17L8 21L9 21L9 19L10 19L10 21L11 21L11 20L13 20L13 19L14 19L14 21L16 21L16 20L18 20L18 21L19 21L19 20L18 20L18 18L20 18L20 17L19 17L19 16L21 16L21 15L19 15L19 13L21 13L21 12L20 12L20 11L21 11L21 8L20 8L20 10L19 10L19 13L18 13L18 15L17 15L17 13L16 13L16 12L18 12L18 11L16 11L16 10L17 10L17 9L19 9L19 8L16 8L16 10L14 10L14 8L13 8L13 5L12 5L12 4L13 4L13 3L12 3L12 1L13 1L13 0ZM10 2L10 4L9 4L9 5L11 5L11 4L12 4L12 3L11 3L11 2ZM11 6L11 7L12 7L12 6ZM0 8L0 11L1 11L1 12L0 12L0 13L2 13L2 11L3 11L3 9L4 9L4 12L5 12L5 13L8 13L8 14L9 14L9 13L10 13L10 12L5 12L5 9L4 9L4 8ZM6 8L6 9L7 9L7 8ZM1 10L1 11L2 11L2 10ZM6 10L6 11L7 11L7 10ZM12 10L12 12L13 12L13 13L12 13L12 14L13 14L13 15L11 15L11 16L10 16L10 17L11 17L11 19L12 19L12 18L14 18L14 17L16 17L16 18L15 18L15 19L17 19L17 18L18 18L18 17L17 17L17 16L15 16L15 14L16 14L16 13L15 13L15 14L13 14L13 13L14 13L14 12L15 12L15 11L14 11L14 10ZM12 16L12 17L13 17L13 16ZM20 19L20 20L21 20L21 19ZM0 0L0 7L7 7L7 0ZM1 1L1 6L6 6L6 1ZM2 2L2 5L5 5L5 2ZM14 0L14 7L21 7L21 0ZM15 1L15 6L20 6L20 1ZM16 2L16 5L19 5L19 2ZM0 14L0 21L7 21L7 14ZM1 15L1 20L6 20L6 15ZM2 16L2 19L5 19L5 16Z" fill="#000000"/></g></g></svg>
