<?xml version="1.0" encoding="UTF-8"?>
<svg xmlns="http://www.w3.org/2000/svg" version="1.1" width="500" height="500" viewBox="0 0 500 500"><rect x="0" y="0" width="500" height="500" fill="#ffffff"/><g transform="scale(23.81)"><g transform="translate(0,0)"><path fill-rule="evenodd" d="M8 0L8 1L9 1L9 0ZM10 0L10 2L8 2L8 5L9 5L9 6L8 6L8 7L9 7L9 6L10 6L10 7L11 7L11 8L8 8L8 9L7 9L7 8L6 8L6 9L5 9L5 10L4 10L4 8L0 8L0 10L1 10L1 11L0 11L0 13L2 13L2 11L4 11L4 12L5 12L5 13L7 13L7 12L5 12L5 11L7 11L7 10L8 10L8 11L9 11L9 12L10 12L10 11L11 11L11 12L12 12L12 13L10 13L10 14L11 14L11 15L13 15L13 14L15 14L15 16L17 16L17 17L18 17L18 18L17 18L17 19L15 19L15 18L16 18L16 17L14 17L14 18L12 18L12 19L14 19L14 21L16 21L16 20L18 20L18 21L19 21L19 20L18 20L18 18L20 18L20 17L19 17L19 16L21 16L21 15L19 15L19 13L21 13L21 12L20 12L20 11L21 11L21 8L20 8L20 10L19 10L19 13L18 13L18 15L17 15L17 13L16 13L16 12L18 12L18 11L16 11L16 10L17 10L17 9L19 9L19 8L16 8L16 10L14 10L14 8L13 8L13 5L12 5L12 4L13 4L13 3L12 3L12 1L13 1L13 0ZM10 2L10 4L9 4L9 5L11 5L11 4L12 4L12 3L11 3L11 2ZM11 6L11 7L12 7L12 6ZM2 9L2 10L3 10L3 9ZM6 9L6 10L7 10L7 9ZM8 9L8 10L9 10L9 9ZM12 10L12 12L13 12L13 13L12 13L12 14L13 14L13 13L14 13L14 12L15 12L15 11L14 11L14 10ZM8 13L8 14L9 14L9 13ZM15 13L15 14L16 14L16 13ZM9 16L9 17L8 17L8 21L11 21L11 19L10 19L10 18L11 18L11 16ZM12 16L12 17L13 17L13 16ZM9 17L9 18L10 18L10 17ZM9 19L9 20L10 20L10 19ZM20 19L20 20L21 20L21 19ZM12 20L12 21L13 21L13 20ZM0 0L0 7L7 7L7 0ZM1 1L1 6L6 6L6 1ZM2 2L2 5L5 5L5 2ZM14 0L14 7L21 7L21 0ZM15 1L15 6L20 6L20 1ZM16 2L16 5L19 5L19 2ZM0 14L0 21L7 21L7 14ZM1 15L1 20L6 20L6 15ZM2 16L2 19L5 19L5 16Z" fill="#000000"/></g></g></svg>
