<?xml version="1.0" encoding="UTF-8"?>
<svg xmlns="http://www.w3.org/2000/svg" version="1.1" width="500" height="500" viewBox="0 0 500 500"><rect x="0" y="0" width="500" height="500" fill="#ffffff"/><g transform="scale(23.81)"><g transform="translate(0,0)"><path fill-rule="evenodd" d="M8 0L8 1L9 1L9 2L8 2L8 5L11 5L11 4L12 4L12 3L13 3L13 0L12 0L12 3L11 3L11 2L10 2L10 0ZM9 2L9 4L11 4L11 3L10 3L10 2ZM8 6L8 7L9 7L9 8L8 8L8 9L9 9L9 8L10 8L10 12L11 12L11 14L12 14L12 12L13 12L13 10L14 10L14 11L15 11L15 12L14 12L14 13L13 13L13 14L15 14L15 16L17 16L17 17L18 17L18 18L17 18L17 19L15 19L15 18L16 18L16 17L14 17L14 18L13 18L13 17L12 17L12 16L13 16L13 15L12 15L12 16L11 16L11 15L10 15L10 16L9 16L9 17L8 17L8 21L9 21L9 20L10 20L10 21L11 21L11 19L10 19L10 18L12 18L12 19L14 19L14 21L16 21L16 20L18 20L18 21L19 21L19 20L18 20L18 18L20 18L20 16L19 16L19 13L21 13L21 12L20 12L20 11L21 11L21 8L20 8L20 10L19 10L19 13L18 13L18 15L17 15L17 13L16 13L16 12L18 12L18 11L16 11L16 10L17 10L17 9L19 9L19 8L16 8L16 10L14 10L14 8L13 8L13 9L12 9L12 12L11 12L11 6L10 6L10 7L9 7L9 6ZM12 6L12 7L13 7L13 6ZM0 8L0 10L1 10L1 9L3 9L3 10L2 10L2 11L1 11L1 13L5 13L5 11L8 11L8 12L6 12L6 13L8 13L8 14L10 14L10 13L9 13L9 11L8 11L8 10L5 10L5 9L4 9L4 8ZM6 8L6 9L7 9L7 8ZM3 10L3 11L4 11L4 10ZM15 13L15 14L16 14L16 13ZM9 17L9 18L10 18L10 17ZM20 19L20 20L21 20L21 19ZM0 0L0 7L7 7L7 0ZM1 1L1 6L6 6L6 1ZM2 2L2 5L5 5L5 2ZM14 0L14 7L21 7L21 0ZM15 1L15 6L20 6L20 1ZM16 2L16 5L19 5L19 2ZM0 14L0 21L7 21L7 14ZM1 15L1 20L6 20L6 15ZM2 16L2 19L5 19L5 16Z" fill="#000000"/></g></g></svg>
