<?xml version="1.0" encoding="UTF-8"?>
<svg xmlns="http://www.w3.org/2000/svg" version="1.1" width="500" height="500" viewBox="0 0 500 500"><rect x="0" y="0" width="500" height="500" fill="#ffffff"/><g transform="scale(23.81)"><g transform="translate(0,0)"><path fill-rule="evenodd" d="M10 0L10 1L11 1L11 0ZM12 0L12 2L13 2L13 0ZM8 2L8 3L9 3L9 2ZM10 2L10 3L11 3L11 2ZM12 3L12 4L11 4L11 5L10 5L10 4L9 4L9 6L8 6L8 8L4 8L4 9L3 9L3 8L0 8L0 11L1 11L1 10L2 10L2 11L3 11L3 12L2 12L2 13L3 13L3 12L4 12L4 13L8 13L8 17L9 17L9 18L8 18L8 21L11 21L11 20L9 20L9 18L10 18L10 19L11 19L11 15L10 15L10 13L8 13L8 12L11 12L11 14L12 14L12 15L13 15L13 16L12 16L12 21L14 21L14 18L15 18L15 19L16 19L16 20L15 20L15 21L16 21L16 20L18 20L18 18L20 18L20 19L19 19L19 21L21 21L21 20L20 20L20 19L21 19L21 18L20 18L20 15L21 15L21 13L20 13L20 11L21 11L21 9L19 9L19 8L18 8L18 9L16 9L16 10L14 10L14 11L19 11L19 13L18 13L18 14L19 14L19 17L17 17L17 12L16 12L16 13L15 13L15 14L12 14L12 12L13 12L13 11L12 11L12 9L15 9L15 8L12 8L12 9L11 9L11 6L12 6L12 7L13 7L13 6L12 6L12 5L13 5L13 3ZM9 6L9 9L6 9L6 10L5 10L5 9L4 9L4 12L5 12L5 11L6 11L6 12L8 12L8 11L9 11L9 10L10 10L10 11L11 11L11 9L10 9L10 6ZM2 9L2 10L3 10L3 9ZM6 10L6 11L8 11L8 10ZM0 12L0 13L1 13L1 12ZM9 15L9 17L10 17L10 15ZM14 15L14 16L13 16L13 18L14 18L14 17L15 17L15 18L16 18L16 16L15 16L15 15ZM0 0L0 7L7 7L7 0ZM1 1L1 6L6 6L6 1ZM2 2L2 5L5 5L5 2ZM14 0L14 7L21 7L21 0ZM15 1L15 6L20 6L20 1ZM16 2L16 5L19 5L19 2ZM0 14L0 21L7 21L7 14ZM1 15L1 20L6 20L6 15ZM2 16L2 19L5 19L5 16Z" fill="#000000"/></g></g></svg>
