<?xml version="1.0" encoding="UTF-8"?>
<svg xmlns="http://www.w3.org/2000/svg" version="1.1" width="500" height="500" viewBox="0 0 500 500"><rect x="0" y="0" width="500" height="500" fill="#ffffff"/><g transform="scale(23.81)"><g transform="translate(0,0)"><path fill-rule="evenodd" d="M10 0L10 3L12 3L12 4L8 4L8 8L6 8L6 9L4 9L4 8L3 8L3 10L2 10L2 11L1 11L1 10L0 10L0 11L1 11L1 12L0 12L0 13L4 13L4 12L5 12L5 13L8 13L8 15L9 15L9 14L10 14L10 13L8 13L8 12L9 12L9 10L10 10L10 12L11 12L11 16L10 16L10 19L11 19L11 20L12 20L12 21L16 21L16 20L12 20L12 19L14 19L14 18L13 18L13 17L14 17L14 13L13 13L13 14L12 14L12 12L13 12L13 11L14 11L14 12L15 12L15 11L16 11L16 10L17 10L17 12L16 12L16 13L15 13L15 16L17 16L17 15L18 15L18 14L19 14L19 16L20 16L20 14L21 14L21 13L20 13L20 12L21 12L21 9L20 9L20 8L18 8L18 9L17 9L17 8L14 8L14 9L16 9L16 10L13 10L13 11L12 11L12 9L13 9L13 8L10 8L10 9L8 9L8 8L9 8L9 6L10 6L10 7L11 7L11 5L13 5L13 3L12 3L12 2L13 2L13 0L12 0L12 2L11 2L11 0ZM8 1L8 3L9 3L9 1ZM12 6L12 7L13 7L13 6ZM0 8L0 9L2 9L2 8ZM6 9L6 10L7 10L7 11L6 11L6 12L7 12L7 11L8 11L8 9ZM3 10L3 11L5 11L5 10ZM19 10L19 11L18 11L18 12L17 12L17 13L16 13L16 14L18 14L18 13L19 13L19 14L20 14L20 13L19 13L19 11L20 11L20 10ZM11 11L11 12L12 12L12 11ZM12 15L12 16L13 16L13 15ZM8 17L8 18L9 18L9 17ZM16 17L16 18L15 18L15 19L17 19L17 21L18 21L18 18L20 18L20 19L21 19L21 17L18 17L18 18L17 18L17 17ZM11 18L11 19L12 19L12 18ZM8 19L8 21L9 21L9 19ZM19 20L19 21L20 21L20 20ZM0 0L0 7L7 7L7 0ZM1 1L1 6L6 6L6 1ZM2 2L2 5L5 5L5 2ZM14 0L14 7L21 7L21 0ZM15 1L15 6L20 6L20 1ZM16 2L16 5L19 5L19 2ZM0 14L0 21L7 21L7 14ZM1 15L1 20L6 20L6 15ZM2 16L2 19L5 19L5 16Z" fill="#000000"/></g></g></svg>
